# xmcd
#
# Track frame offsets:
#	150
#	16240
#	32685
#	48982
#	65377
#	76547
#	93750
#	110500
#	123467
#	135400
#	153520
#	167207
#
# Disc length: 2458 seconds
#
# Revision: 0
# Processed by: cddbd v1.5.2PL0 Copyright (c) Steve Scherf et al.
# Submitted via: EasyCDDAExtractor 11.1.0.1
#
DISCID=8909980c
DTITLE=Paul Mateki - So strong
DYEAR=1900
DGENRE=country
TTITLE0=So strong
TTITLE1=Sedona
TTITLE2=Don't be a fool
TTITLE3=Write in your heart
TTITLE4=Nothing looks the same
TTITLE5=Watch how I'm listening
TTITLE6=Walking in her light
TTITLE7=Only time will tell
TTITLE8=Something this guy won't do
TTITLE9=Harvest time in heaven
TTITLE10=Red side of town
TTITLE11=Dead horses
EXTD=
EXTT0=
EXTT1=
EXTT2=
EXTT3=
EXTT4=
EXTT5=
EXTT6=
EXTT7=
EXTT8=
EXTT9=
EXTT10=
EXTT11=
PLAYORDER=
